# MagicaVoxel @ Ephtracy

# group
o 

# material
mtllib bucheron.mtl
usemtl palette

# normals
vn -1 0 0
vn 1 0 0
vn 0 0 1
vn 0 0 -1
vn 0 -1 0
vn 0 1 0

# texcoords
vt 0.634766 0.5
vt 0.658203 0.5
vt 0.662109 0.5
vt 0.666016 0.5
vt 0.677734 0.5
vt 0.693359 0.5
vt 0.845703 0.5

# verts
v -0.2 0 0.3
v -0.2 0 0.2
v -0.2 0 0.1
v -0.2 0 0
v -0.2 0 -0.1
v -0.2 0 -0.2
v -0.2 0.2 0.3
v -0.2 0.2 0.2
v -0.2 0.2 0.1
v -0.2 0.2 0
v -0.2 0.2 -0.1
v -0.2 0.2 -0.2
v -0.2 0.3 0.1
v -0.2 0.3 0
v -0.2 0.4 0.4
v -0.2 0.4 0.3
v -0.2 0.4 -0.2
v -0.2 0.4 -0.3
v -0.2 0.7 0.4
v -0.2 0.7 0.3
v -0.2 0.7 0.2
v -0.2 0.7 -0.1
v -0.2 0.7 -0.2
v -0.2 0.7 -0.3
v -0.2 0.8 0.4
v -0.2 0.8 0.2
v -0.2 0.8 -0.1
v -0.2 0.8 -0.3
v -0.2 1.1 0.2
v -0.2 1.1 -0.1
v 0 0.1 0.3
v 0 0.1 0.2
v 0 0.1 0.1
v 0 0.1 0
v 0 0.1 -0.1
v 0 0.1 -0.2
v 0 0.2 0.3
v 0 0.2 0.2
v 0 0.2 0.1
v 0 0.2 0
v 0 0.2 -0.1
v 0 0.2 -0.2
v 0 0.3 0.1
v 0 0.3 0
v 0 0.4 0.4
v 0 0.4 0.3
v 0 0.4 -0.2
v 0 0.4 -0.3
v 0 0.5 0.3
v 0 0.5 -0.2
v 0 0.7 0.4
v 0 0.7 0.3
v 0 0.7 0.2
v 0 0.7 -0.1
v 0 0.7 -0.2
v 0 0.7 -0.3
v 0 0.8 0.4
v 0 0.8 0.2
v 0 0.8 0.1
v 0 0.8 0
v 0 0.8 -0.1
v 0 0.8 -0.3
v 0 0.9 0.2
v 0 0.9 0.1
v 0 0.9 0
v 0 0.9 -0.1
v 0 1.1 0.2
v 0 1.1 -0.1
v 0.1 0 0.3
v 0.1 0 0.2
v 0.1 0 0.1
v 0.1 0 0
v 0.1 0 -0.1
v 0.1 0 -0.2
v 0.1 0.1 0.3
v 0.1 0.1 0.2
v 0.1 0.1 0.1
v 0.1 0.1 0
v 0.1 0.1 -0.1
v 0.1 0.1 -0.2
v -0.2 0.4 0.4
v -0.2 0.7 0.4
v -0.2 0.8 0.4
v 0 0.4 0.4
v 0 0.7 0.4
v 0 0.8 0.4
v -0.2 0 0.3
v -0.2 0.2 0.3
v -0.2 0.4 0.3
v 0 0.1 0.3
v 0 0.2 0.3
v 0 0.4 0.3
v 0.1 0 0.3
v 0.1 0.1 0.3
v -0.2 0.8 0.2
v -0.2 1.1 0.2
v -0.1 0.8 0.2
v -0.1 0.9 0.2
v 0 0.8 0.2
v 0 0.9 0.2
v 0 1.1 0.2
v -0.2 0 0
v -0.2 0.2 0
v -0.2 0.3 0
v 0 0.1 0
v 0 0.2 0
v 0 0.3 0
v 0.1 0 0
v 0.1 0.1 0
v -0.2 0 0.1
v -0.2 0.2 0.1
v -0.2 0.3 0.1
v 0 0.1 0.1
v 0 0.2 0.1
v 0 0.3 0.1
v 0.1 0 0.1
v 0.1 0.1 0.1
v -0.2 0.8 -0.1
v -0.2 1.1 -0.1
v -0.1 0.8 -0.1
v -0.1 0.9 -0.1
v 0 0.8 -0.1
v 0 0.9 -0.1
v 0 1.1 -0.1
v -0.2 0 -0.2
v -0.2 0.2 -0.2
v -0.2 0.4 -0.2
v 0 0.1 -0.2
v 0 0.2 -0.2
v 0 0.4 -0.2
v 0.1 0 -0.2
v 0.1 0.1 -0.2
v -0.2 0.4 -0.3
v -0.2 0.7 -0.3
v -0.2 0.8 -0.3
v 0 0.4 -0.3
v 0 0.7 -0.3
v 0 0.8 -0.3
v -0.2 0 0.3
v 0.1 0 0.3
v -0.2 0 0.2
v 0.1 0 0.2
v -0.2 0 0.1
v 0.1 0 0.1
v -0.2 0 0
v 0.1 0 0
v -0.2 0 -0.1
v 0.1 0 -0.1
v -0.2 0 -0.2
v 0.1 0 -0.2
v -0.2 0.3 0.1
v 0 0.3 0.1
v -0.2 0.3 0
v 0 0.3 0
v -0.2 0.4 0.4
v 0 0.4 0.4
v -0.2 0.4 0.3
v 0 0.4 0.3
v -0.2 0.4 -0.2
v 0 0.4 -0.2
v -0.2 0.4 -0.3
v 0 0.4 -0.3
v 0 0.1 0.3
v 0.1 0.1 0.3
v 0 0.1 0.2
v 0.1 0.1 0.2
v 0 0.1 0.1
v 0.1 0.1 0.1
v 0 0.1 0
v 0.1 0.1 0
v 0 0.1 -0.1
v 0.1 0.1 -0.1
v 0 0.1 -0.2
v 0.1 0.1 -0.2
v -0.2 0.8 0.4
v 0 0.8 0.4
v -0.2 0.8 0.2
v -0.1 0.8 0.2
v 0 0.8 0.2
v -0.2 0.8 -0.1
v -0.1 0.8 -0.1
v 0 0.8 -0.1
v -0.2 0.8 -0.3
v 0 0.8 -0.3
v -0.2 1.1 0.2
v 0 1.1 0.2
v -0.2 1.1 -0.1
v 0 1.1 -0.1

# faces
f 7/2/1 2/2/1 1/2/1
f 8/3/1 3/3/1 2/3/1
f 8/2/1 2/2/1 7/2/1
f 9/3/1 3/3/1 8/3/1
f 10/3/1 5/3/1 4/3/1
f 11/2/1 6/2/1 5/2/1
f 11/3/1 5/3/1 10/3/1
f 12/2/1 6/2/1 11/2/1
f 13/1/1 9/1/1 8/1/1
f 13/1/1 8/1/1 7/1/1
f 14/1/1 12/1/1 11/1/1
f 14/1/1 11/1/1 10/1/1
f 16/1/1 13/1/1 7/1/1
f 16/1/1 14/1/1 13/1/1
f 17/1/1 12/1/1 14/1/1
f 17/1/1 14/1/1 16/1/1
f 19/4/1 16/4/1 15/4/1
f 20/6/1 17/6/1 16/6/1
f 20/4/1 16/4/1 19/4/1
f 21/6/1 17/6/1 20/6/1
f 22/6/1 17/6/1 21/6/1
f 23/4/1 18/4/1 17/4/1
f 23/6/1 17/6/1 22/6/1
f 24/4/1 18/4/1 23/4/1
f 25/5/1 20/5/1 19/5/1
f 25/5/1 21/5/1 20/5/1
f 26/7/1 22/7/1 21/7/1
f 26/5/1 21/5/1 25/5/1
f 27/5/1 24/5/1 23/5/1
f 27/7/1 22/7/1 26/7/1
f 27/5/1 23/5/1 22/5/1
f 28/5/1 24/5/1 27/5/1
f 29/4/1 27/4/1 26/4/1
f 30/4/1 27/4/1 29/4/1
f 31/2/2 32/2/2 37/2/2
f 32/3/2 33/3/2 38/3/2
f 37/2/2 32/2/2 38/2/2
f 38/3/2 33/3/2 39/3/2
f 34/3/2 35/3/2 40/3/2
f 35/2/2 36/2/2 41/2/2
f 40/3/2 35/3/2 41/3/2
f 41/2/2 36/2/2 42/2/2
f 38/1/2 39/1/2 43/1/2
f 37/1/2 38/1/2 43/1/2
f 41/1/2 42/1/2 44/1/2
f 40/1/2 41/1/2 44/1/2
f 37/1/2 43/1/2 46/1/2
f 43/1/2 44/1/2 46/1/2
f 44/1/2 42/1/2 47/1/2
f 46/1/2 44/1/2 47/1/2
f 46/3/2 47/3/2 49/3/2
f 45/4/2 46/4/2 49/4/2
f 47/4/2 48/4/2 50/4/2
f 49/3/2 47/3/2 50/3/2
f 45/4/2 49/4/2 51/4/2
f 49/6/2 50/6/2 52/6/2
f 51/4/2 49/4/2 52/4/2
f 52/6/2 50/6/2 53/6/2
f 53/6/2 50/6/2 54/6/2
f 50/4/2 48/4/2 55/4/2
f 54/6/2 50/6/2 55/6/2
f 55/4/2 48/4/2 56/4/2
f 51/5/2 52/5/2 57/5/2
f 52/5/2 53/5/2 57/5/2
f 53/3/2 54/3/2 58/3/2
f 57/5/2 53/5/2 58/5/2
f 58/3/2 54/3/2 59/3/2
f 59/3/2 54/3/2 60/3/2
f 55/5/2 56/5/2 61/5/2
f 60/3/2 54/3/2 61/3/2
f 54/5/2 55/5/2 61/5/2
f 61/5/2 56/5/2 62/5/2
f 58/3/2 59/3/2 63/3/2
f 59/4/2 60/4/2 64/4/2
f 63/3/2 59/3/2 64/3/2
f 60/3/2 61/3/2 65/3/2
f 64/4/2 60/4/2 65/4/2
f 65/3/2 61/3/2 66/3/2
f 63/4/2 64/4/2 67/4/2
f 64/4/2 65/4/2 67/4/2
f 65/4/2 66/4/2 67/4/2
f 67/4/2 66/4/2 68/4/2
f 69/2/2 70/2/2 75/2/2
f 70/3/2 71/3/2 76/3/2
f 75/2/2 70/2/2 76/2/2
f 76/3/2 71/3/2 77/3/2
f 72/3/2 73/3/2 78/3/2
f 73/2/2 74/2/2 79/2/2
f 78/3/2 73/3/2 79/3/2
f 79/2/2 74/2/2 80/2/2
f 84/4/3 82/4/3 81/4/3
f 85/5/3 83/5/3 82/5/3
f 85/4/3 82/4/3 84/4/3
f 86/5/3 83/5/3 85/5/3
f 90/2/3 88/2/3 87/2/3
f 91/1/3 89/1/3 88/1/3
f 91/2/3 88/2/3 90/2/3
f 92/1/3 89/1/3 91/1/3
f 93/2/3 90/2/3 87/2/3
f 94/2/3 90/2/3 93/2/3
f 97/4/3 96/4/3 95/4/3
f 98/4/3 96/4/3 97/4/3
f 99/3/3 98/3/3 97/3/3
f 100/4/3 96/4/3 98/4/3
f 100/3/3 98/3/3 99/3/3
f 101/4/3 96/4/3 100/4/3
f 105/3/3 103/3/3 102/3/3
f 106/1/3 104/1/3 103/1/3
f 106/3/3 103/3/3 105/3/3
f 107/1/3 104/1/3 106/1/3
f 108/3/3 105/3/3 102/3/3
f 109/3/3 105/3/3 108/3/3
f 110/3/4 111/3/4 113/3/4
f 111/1/4 112/1/4 114/1/4
f 113/3/4 111/3/4 114/3/4
f 114/1/4 112/1/4 115/1/4
f 110/3/4 113/3/4 116/3/4
f 116/3/4 113/3/4 117/3/4
f 118/4/4 119/4/4 120/4/4
f 120/4/4 119/4/4 121/4/4
f 120/3/4 121/3/4 122/3/4
f 121/4/4 119/4/4 123/4/4
f 122/3/4 121/3/4 123/3/4
f 123/4/4 119/4/4 124/4/4
f 125/2/4 126/2/4 128/2/4
f 126/1/4 127/1/4 129/1/4
f 128/2/4 126/2/4 129/2/4
f 129/1/4 127/1/4 130/1/4
f 125/2/4 128/2/4 131/2/4
f 131/2/4 128/2/4 132/2/4
f 133/4/4 134/4/4 136/4/4
f 134/5/4 135/5/4 137/5/4
f 136/4/4 134/4/4 137/4/4
f 137/5/4 135/5/4 138/5/4
f 141/2/5 140/2/5 139/2/5
f 142/2/5 140/2/5 141/2/5
f 143/3/5 142/3/5 141/3/5
f 144/3/5 142/3/5 143/3/5
f 147/3/5 146/3/5 145/3/5
f 148/3/5 146/3/5 147/3/5
f 149/2/5 148/2/5 147/2/5
f 150/2/5 148/2/5 149/2/5
f 153/1/5 152/1/5 151/1/5
f 154/1/5 152/1/5 153/1/5
f 157/4/5 156/4/5 155/4/5
f 158/4/5 156/4/5 157/4/5
f 161/4/5 160/4/5 159/4/5
f 162/4/5 160/4/5 161/4/5
f 163/2/6 164/2/6 165/2/6
f 165/2/6 164/2/6 166/2/6
f 165/3/6 166/3/6 167/3/6
f 167/3/6 166/3/6 168/3/6
f 169/3/6 170/3/6 171/3/6
f 171/3/6 170/3/6 172/3/6
f 171/2/6 172/2/6 173/2/6
f 173/2/6 172/2/6 174/2/6
f 175/5/6 176/5/6 177/5/6
f 177/5/6 176/5/6 178/5/6
f 178/5/6 176/5/6 179/5/6
f 180/5/6 181/5/6 183/5/6
f 181/5/6 182/5/6 183/5/6
f 183/5/6 182/5/6 184/5/6
f 185/4/6 186/4/6 187/4/6
f 187/4/6 186/4/6 188/4/6
